<svg width="54" height="55" viewBox="0 0 54 55" fill="none" xmlns="http://www.w3.org/2000/svg">
<g filter="url(#filter0_dd_2311_66)">
<rect x="2" y="2.58167" width="50" height="50" rx="4" fill="#6D31ED"/>
<path d="M9.56942 31.7167C8.92442 31.7167 8.37992 31.5742 7.93592 31.2892C7.49192 31.0012 7.15592 30.6037 6.92792 30.0967C6.69992 29.5897 6.58592 29.0047 6.58592 28.3417C6.58592 27.6787 6.69992 27.0937 6.92792 26.5867C7.15592 26.0797 7.49192 25.6837 7.93592 25.3987C8.37992 25.1107 8.92442 24.9667 9.56942 24.9667C10.3224 24.9667 10.9374 25.1602 11.4144 25.5472C11.8914 25.9312 12.2184 26.4472 12.3954 27.0952L11.7204 27.2707C11.5824 26.7577 11.3349 26.3512 10.9779 26.0512C10.6209 25.7512 10.1514 25.6012 9.56942 25.6012C9.06242 25.6012 8.64092 25.7167 8.30492 25.9477C7.96892 26.1787 7.71542 26.5012 7.54442 26.9152C7.37642 27.3262 7.28942 27.8017 7.28342 28.3417C7.28042 28.8817 7.36292 29.3572 7.53092 29.7682C7.70192 30.1792 7.95692 30.5017 8.29592 30.7357C8.63792 30.9667 9.06242 31.0822 9.56942 31.0822C10.1514 31.0822 10.6209 30.9322 10.9779 30.6322C11.3349 30.3292 11.5824 29.9227 11.7204 29.4127L12.3954 29.5882C12.2184 30.2362 11.8914 30.7537 11.4144 31.1407C10.9374 31.5247 10.3224 31.7167 9.56942 31.7167ZM13.3883 31.5817L13.3883 25.1017H14.0498L14.0498 28.0222L17.6318 28.0222V25.1017H18.2888V31.5817H17.6318V28.6567L14.0498 28.6567V31.5817H13.3883ZM19.0994 31.5817L21.3314 25.1017H22.2089L24.4409 31.5817L23.7524 31.5817L21.6329 25.4707H21.8939L19.7879 31.5817H19.0994ZM20.0939 30.0112V29.3902H23.4419V30.0112H20.0939ZM26.4409 31.5817L26.4409 25.7362L24.1774 25.7362V25.1017L29.3659 25.1017V25.7362H27.1024L27.1024 31.5817H26.4409ZM30.0875 31.5817L30.0875 25.1017H32.5895C32.9525 25.1017 33.269 25.1767 33.539 25.3267C33.809 25.4767 34.019 25.6792 34.169 25.9342C34.319 26.1862 34.394 26.4652 34.394 26.7712C34.394 27.1192 34.301 27.4297 34.115 27.7027C33.929 27.9727 33.68 28.1602 33.368 28.2652L33.359 28.0447C33.779 28.1647 34.109 28.3747 34.349 28.6747C34.589 28.9747 34.709 29.3377 34.709 29.7637C34.709 30.1387 34.6295 30.4627 34.4705 30.7357C34.3115 31.0057 34.088 31.2142 33.8 31.3612C33.512 31.5082 33.1775 31.5817 32.7965 31.5817H30.0875ZM30.7535 30.9472H32.6345C32.8985 30.9472 33.1355 30.9007 33.3455 30.8077C33.5555 30.7117 33.7205 30.5767 33.8405 30.4027C33.9635 30.2287 34.025 30.0187 34.025 29.7727C34.025 29.5327 33.9695 29.3167 33.8585 29.1247C33.7475 28.9327 33.596 28.7797 33.404 28.6657C33.215 28.5487 32.999 28.4902 32.756 28.4902H30.7535L30.7535 30.9472ZM30.7535 27.8647H32.585C32.792 27.8647 32.981 27.8182 33.152 27.7252C33.323 27.6292 33.458 27.4987 33.557 27.3337C33.659 27.1687 33.71 26.9782 33.71 26.7622C33.71 26.4562 33.6035 26.2072 33.3905 26.0152C33.1805 25.8232 32.912 25.7272 32.585 25.7272H30.7535V27.8647ZM38.2306 31.7167C37.5856 31.7167 37.0411 31.5742 36.5971 31.2892C36.1531 31.0012 35.8171 30.6037 35.5891 30.0967C35.3611 29.5897 35.2471 29.0047 35.2471 28.3417C35.2471 27.6787 35.3611 27.0937 35.5891 26.5867C35.8171 26.0797 36.1531 25.6837 36.5971 25.3987C37.0411 25.1107 37.5856 24.9667 38.2306 24.9667C38.8786 24.9667 39.4231 25.1107 39.8641 25.3987C40.3081 25.6837 40.6441 26.0797 40.8721 26.5867C41.1031 27.0937 41.2186 27.6787 41.2186 28.3417C41.2186 29.0047 41.1031 29.5897 40.8721 30.0967C40.6441 30.6037 40.3081 31.0012 39.8641 31.2892C39.4231 31.5742 38.8786 31.7167 38.2306 31.7167ZM38.2306 31.0822C38.7376 31.0822 39.1606 30.9667 39.4996 30.7357C39.8386 30.5047 40.0921 30.1837 40.2601 29.7727C40.4311 29.3587 40.5166 28.8817 40.5166 28.3417C40.5166 27.8017 40.4311 27.3262 40.2601 26.9152C40.0921 26.5042 39.8386 26.1832 39.4996 25.9522C39.1606 25.7212 38.7376 25.6042 38.2306 25.6012C37.7236 25.6012 37.3021 25.7167 36.9661 25.9477C36.6301 26.1787 36.3766 26.5012 36.2056 26.9152C36.0376 27.3262 35.9521 27.8017 35.9491 28.3417C35.9461 28.8817 36.0286 29.3572 36.1966 29.7682C36.3676 30.1762 36.6226 30.4972 36.9616 30.7312C37.3006 30.9622 37.7236 31.0792 38.2306 31.0822ZM43.6675 31.5817V25.7362H41.404V25.1017L46.5925 25.1017V25.7362H44.329V31.5817H43.6675Z" fill="white"/>
</g>
<defs>
<filter id="filter0_dd_2311_66" x="0" y="0.581665" width="54" height="54" filterUnits="userSpaceOnUse" color-interpolation-filters="sRGB">
<feFlood flood-opacity="0" result="BackgroundImageFix"/>
<feColorMatrix in="SourceAlpha" type="matrix" values="0 0 0 0 0 0 0 0 0 0 0 0 0 0 0 0 0 0 127 0" result="hardAlpha"/>
<feOffset/>
<feGaussianBlur stdDeviation="0.5"/>
<feColorMatrix type="matrix" values="0 0 0 0 0.0901961 0 0 0 0 0.101961 0 0 0 0 0.121569 0 0 0 0.07 0"/>
<feBlend mode="normal" in2="BackgroundImageFix" result="effect1_dropShadow_2311_66"/>
<feColorMatrix in="SourceAlpha" type="matrix" values="0 0 0 0 0 0 0 0 0 0 0 0 0 0 0 0 0 0 127 0" result="hardAlpha"/>
<feOffset/>
<feGaussianBlur stdDeviation="1"/>
<feColorMatrix type="matrix" values="0 0 0 0 0.0901961 0 0 0 0 0.101961 0 0 0 0 0.121569 0 0 0 0.12 0"/>
<feBlend mode="normal" in2="effect1_dropShadow_2311_66" result="effect2_dropShadow_2311_66"/>
<feBlend mode="normal" in="SourceGraphic" in2="effect2_dropShadow_2311_66" result="shape"/>
</filter>
</defs>
</svg>
